<svg width="42" height="49" viewBox="0 0 42 49" fill="none" xmlns="http://www.w3.org/2000/svg">
<path fill-rule="evenodd" clip-rule="evenodd" d="M20.6075 20.52C22.1624 20.52 23.6537 19.9024 24.7532 18.8029C25.8527 17.7034 26.4704 16.2121 26.4704 14.6572C26.4704 13.1023 25.8527 11.611 24.7532 10.5115C23.6537 9.412 22.1624 8.79431 20.6075 8.79431C19.0526 8.79431 17.5613 9.412 16.4618 10.5115C15.3623 11.611 14.7446 13.1023 14.7446 14.6572C14.7446 16.2121 15.3623 17.7034 16.4618 18.8029C17.5613 19.9024 19.0526 20.52 20.6075 20.52ZM20.6075 11.7257C21.385 11.7257 22.1306 12.0346 22.6803 12.5843C23.2301 13.1341 23.5389 13.8797 23.5389 14.6572C23.5389 15.4346 23.2301 16.1803 22.6803 16.73C22.1306 17.2798 21.385 17.5886 20.6075 17.5886C19.83 17.5886 19.0844 17.2798 18.5347 16.73C17.9849 16.1803 17.6761 15.4346 17.6761 14.6572C17.6761 13.8797 17.9849 13.1341 18.5347 12.5843C19.0844 12.0346 19.83 11.7257 20.6075 11.7257Z" fill="black"/>
<path fill-rule="evenodd" clip-rule="evenodd" d="M7.41699 14.0298C7.41699 21.8656 15.1941 35.1772 20.6084 35.1772C26.0257 35.1772 33.7999 21.8656 33.7999 14.0298C33.7999 6.30258 27.9165 0 20.6084 0C13.3004 0 7.41699 6.30258 7.41699 14.0298ZM30.8685 14.0298C30.8685 20.4585 23.9855 32.2458 20.6084 32.2458C17.2344 32.2458 10.3484 20.4614 10.3484 14.0298C10.3484 7.87676 14.9654 2.93143 20.6084 2.93143C26.2515 2.93143 30.8685 7.87676 30.8685 14.0298Z" fill="black"/>
<path d="M30.6776 22.3961C30.3271 22.2453 30.0493 21.9638 29.9031 21.6113C29.7569 21.2589 29.7539 20.8633 29.8948 20.5087C30.0356 20.1541 30.3092 19.8684 30.6574 19.7123C31.0056 19.5562 31.4009 19.542 31.7593 19.6728C32.9514 20.1456 34.0256 20.8734 34.9067 21.8051C35.7878 22.7369 36.4545 23.8501 36.86 25.0667L40.7705 36.7924C41.2115 38.1149 41.3318 39.5232 41.1215 40.9013C40.9111 42.2794 40.3761 43.5878 39.5607 44.7185C38.7452 45.8492 37.6727 46.7698 36.4314 47.4045C35.1902 48.0391 33.8159 48.3696 32.4218 48.3686H8.79447C7.4009 48.3686 6.02727 48.0375 4.7868 47.4025C3.54633 46.7674 2.47454 45.8467 1.65976 44.7161C0.844973 43.5855 0.310531 42.2775 0.100477 40.8999C-0.109577 39.5222 0.0107725 38.1144 0.451605 36.7924L4.35921 25.0667C4.77181 23.8283 5.45493 22.6972 6.35898 21.7557C7.26303 20.8141 8.36535 20.0856 9.58595 19.623C9.76592 19.5547 9.95759 19.5224 10.15 19.5282C10.3424 19.5339 10.5318 19.5775 10.7074 19.6564C10.883 19.7354 11.0413 19.8481 11.1733 19.9883C11.3053 20.1284 11.4084 20.2931 11.4767 20.4731C11.5451 20.6531 11.5773 20.8447 11.5715 21.0372C11.5658 21.2296 11.5222 21.419 11.4433 21.5945C11.3643 21.7701 11.2516 21.9284 11.1115 22.0604C10.9713 22.1924 10.8066 22.2955 10.6266 22.3639C9.81185 22.6721 9.076 23.158 8.47258 23.7863C7.86915 24.4145 7.41332 25.1694 7.13821 25.9959L3.2306 37.7217C2.93705 38.603 2.85713 39.5416 2.99745 40.4599C3.13777 41.3782 3.49431 42.25 4.03767 43.0035C4.58104 43.757 5.29569 44.3706 6.12272 44.7938C6.94975 45.2169 7.86548 45.4374 8.79447 45.4372H32.4277C33.3568 45.4371 34.2725 45.2162 35.0995 44.7927C35.9264 44.3693 36.6409 43.7553 37.184 43.0015C37.7271 42.2477 38.0833 41.3756 38.2232 40.4571C38.3631 39.5386 38.2827 38.6 37.9886 37.7187L34.084 25.993C33.8134 25.1823 33.3688 24.4406 32.7814 23.8197C32.194 23.1989 31.478 22.714 30.6835 22.399" fill="black"/>
</svg>
