<svg width="37" height="37" viewBox="0 0 37 37" fill="none" xmlns="http://www.w3.org/2000/svg">
<mask id="path-1-inside-1_7281_805" fill="white">
<path d="M20.8715 1.42343C20.8715 1.04599 21.0214 0.684016 21.2883 0.417129C21.5552 0.150243 21.9172 0.000307981 22.2946 0.000307981C26.1947 0.000307981 29.9351 1.54964 32.6929 4.30746C35.4507 7.06529 37 10.8057 37 14.7059C37 15.0833 36.8501 15.4453 36.5832 15.7121C36.3163 15.979 35.9543 16.129 35.5769 16.129C35.1995 16.129 34.8375 15.979 34.5706 15.7121C34.3037 15.4453 34.1538 15.0833 34.1538 14.7059C34.1538 11.5606 32.9043 8.54411 30.6803 6.32006C28.4563 4.096 25.4398 2.84654 22.2946 2.84654C21.9172 2.84654 21.5552 2.69661 21.2883 2.42972C21.0214 2.16284 20.8715 1.80086 20.8715 1.42343ZM20.8715 9.01338C20.8715 8.63595 21.0214 8.27398 21.2883 8.00709C21.5552 7.7402 21.9172 7.59027 22.2946 7.59027C24.1817 7.59027 25.9916 8.33994 27.326 9.67437C28.6604 11.0088 29.4101 12.8187 29.4101 14.7059C29.4101 15.0833 29.2602 15.4453 28.9933 15.7121C28.7264 15.979 28.3644 16.129 27.987 16.129C27.6096 16.129 27.2476 15.979 26.9807 15.7121C26.7138 15.4453 26.5639 15.0833 26.5639 14.7059C26.5639 13.5736 26.1141 12.4876 25.3134 11.687C24.5128 10.8863 23.4269 10.4365 22.2946 10.4365C21.9172 10.4365 21.5552 10.2866 21.2883 10.0197C21.0214 9.75279 20.8715 9.39082 20.8715 9.01338ZM12.8148 2.21278C11.7295 0.675814 10.2267 -0.0167694 8.63278 0.000307981C7.1205 0.0154879 5.64806 0.662532 4.41849 1.52399C3.16437 2.40693 2.09501 3.52659 1.27059 4.81993C0.492622 6.0514 -0.0690307 7.50678 0.00686825 8.928C0.373081 15.7647 4.21926 23.07 9.62136 28.4759C15.0197 33.8762 22.2282 37.6294 29.5069 36.9122C30.9338 36.7718 32.2829 36.045 33.3853 35.119C34.5256 34.1532 35.4572 32.9653 36.1234 31.6277C36.7685 30.3146 37.1537 28.8004 36.9412 27.3261C36.7211 25.7891 35.8615 24.4153 34.2809 23.5045C33.9534 23.3145 33.6296 23.1184 33.3094 22.9163C33.0248 22.7398 32.7212 22.5482 32.3531 22.3281C31.6012 21.8645 30.8078 21.4719 29.9831 21.1554C29.135 20.8461 28.1654 20.6431 27.1559 20.7816C26.1104 20.9258 25.1389 21.4192 24.2983 22.3034C23.6513 22.9865 22.6987 23.199 21.3591 22.8119C19.9967 22.4173 18.4636 21.4381 17.1316 20.1137C15.7995 18.793 14.792 17.2485 14.3613 15.8538C13.9362 14.4725 14.1241 13.4573 14.7882 12.7571C15.6857 11.8122 16.1638 10.761 16.2644 9.64904C16.3631 8.56747 16.0936 7.55042 15.7085 6.6624C15.1316 5.33605 14.1525 4.01729 13.386 2.98885C13.1932 2.73173 13.0035 2.47239 12.8167 2.21088"/>
</mask>
<path d="M20.8715 1.42343H24.8715H20.8715ZM22.2946 0.000307981V-3.99969V0.000307981ZM37 14.7059H33H37ZM22.2946 2.84654V-1.15346V2.84654ZM20.8715 9.01338H24.8715H20.8715ZM22.2946 7.59027V3.59027V7.59027ZM26.5639 14.7059H30.5639H26.5639ZM22.2946 10.4365V14.4365V10.4365ZM8.63278 0.000307981L8.67293 4.00011L8.67564 4.00008L8.63278 0.000307981ZM4.41849 1.52399L2.12327 -1.75198L2.1158 -1.74673L4.41849 1.52399ZM1.27059 4.81993L-2.10242 2.66986L-2.10679 2.67671L-2.11113 2.68358L1.27059 4.81993ZM0.00686825 8.928L-3.98744 9.14131L-3.98741 9.14195L0.00686825 8.928ZM9.62136 28.4759L6.79193 31.3034L6.79243 31.3039L9.62136 28.4759ZM29.5069 36.9122L29.1152 32.9314L29.1146 32.9315L29.5069 36.9122ZM33.3853 35.119L35.958 38.182L35.9643 38.1766L35.9707 38.1713L33.3853 35.119ZM36.1234 31.6277L39.7039 33.4109L39.7087 33.4013L39.7134 33.3916L36.1234 31.6277ZM36.9412 27.3261L32.9816 27.8931L32.9821 27.8967L36.9412 27.3261ZM34.2809 23.5045L32.2735 26.9644L32.2838 26.9703L34.2809 23.5045ZM33.3094 22.9163L35.4448 19.534L35.431 19.5253L35.4172 19.5167L33.3094 22.9163ZM32.3531 22.3281L30.2538 25.7329L30.2769 25.7472L30.3003 25.7612L32.3531 22.3281ZM29.9831 21.1554L31.4163 17.421L31.385 17.409L31.3535 17.3975L29.9831 21.1554ZM27.1559 20.7816L26.6121 16.8188L26.6094 16.8191L27.1559 20.7816ZM24.2983 22.3034L21.3992 19.5474L21.3943 19.5527L24.2983 22.3034ZM21.3591 22.8119L20.2461 26.654L20.2487 26.6547L21.3591 22.8119ZM17.1316 20.1137L19.9519 17.2772L19.9478 17.2732L17.1316 20.1137ZM14.3613 15.8538L10.5381 17.0302L10.5394 17.0342L14.3613 15.8538ZM14.7882 12.7571L11.8879 10.0025L11.886 10.0044L14.7882 12.7571ZM16.2644 9.64904L12.281 9.28564L12.2807 9.28874L16.2644 9.64904ZM15.7085 6.6624L19.3781 5.07066L19.3766 5.06712L15.7085 6.6624ZM13.386 2.98885L16.5931 0.598338L16.5866 0.589713L13.386 2.98885ZM24.8715 1.42343C24.8715 2.10685 24.6 2.76229 24.1167 3.24554L18.4599 -2.41129C17.4428 -1.39426 16.8715 -0.0148723 16.8715 1.42343H24.8715ZM24.1167 3.24554C23.6335 3.72881 22.978 4.00031 22.2946 4.00031V-3.99969C20.8563 -3.99969 19.4769 -3.42832 18.4599 -2.41129L24.1167 3.24554ZM22.2946 4.00031C25.1338 4.00031 27.8568 5.1282 29.8644 7.13588L35.5213 1.47905C32.0134 -2.02893 27.2556 -3.99969 22.2946 -3.99969V4.00031ZM29.8644 7.13588C31.8721 9.14355 33 11.8666 33 14.7059H41C41 9.74485 39.0293 4.98702 35.5213 1.47905L29.8644 7.13588ZM33 14.7059C33 14.0224 33.2715 13.367 33.7547 12.8837L39.4116 18.5406C40.4287 17.5235 41 16.1441 41 14.7059H33ZM33.7547 12.8837C34.238 12.4005 34.8935 12.129 35.5769 12.129V20.129C37.0152 20.129 38.3946 19.5576 39.4116 18.5406L33.7547 12.8837ZM35.5769 12.129C36.2603 12.129 36.9158 12.4005 37.399 12.8837L31.7422 18.5406C32.7592 19.5576 34.1386 20.129 35.5769 20.129V12.129ZM37.399 12.8837C37.8823 13.367 38.1538 14.0224 38.1538 14.7059H30.1538C30.1538 16.1441 30.7251 17.5235 31.7422 18.5406L37.399 12.8837ZM38.1538 14.7059C38.1538 10.4997 36.4829 6.46584 33.5088 3.49164L27.8519 9.14847C29.3258 10.6224 30.1538 12.6214 30.1538 14.7059H38.1538ZM33.5088 3.49164C30.5346 0.517438 26.5007 -1.15346 22.2946 -1.15346V6.84654C24.379 6.84654 26.378 7.67457 27.8519 9.14847L33.5088 3.49164ZM22.2946 -1.15346C22.978 -1.15346 23.6335 -0.881955 24.1167 -0.398693L18.4599 5.25814C19.4769 6.27517 20.8563 6.84654 22.2946 6.84654V-1.15346ZM24.1167 -0.398693C24.6 0.0845633 24.8715 0.739997 24.8715 1.42343H16.8715C16.8715 2.86172 17.4428 4.24111 18.4599 5.25814L24.1167 -0.398693ZM24.8715 9.01338C24.8715 9.69682 24.6 10.3522 24.1167 10.8355L18.4599 5.17867C17.4428 6.1957 16.8715 7.57508 16.8715 9.01338H24.8715ZM24.1167 10.8355C23.6335 11.3188 22.978 11.5903 22.2946 11.5903V3.59027C20.8563 3.59027 19.4769 4.16164 18.4599 5.17867L24.1167 10.8355ZM22.2946 11.5903C23.1209 11.5903 23.9133 11.9185 24.4976 12.5028L30.1545 6.84596C28.0699 4.76138 25.2426 3.59027 22.2946 3.59027V11.5903ZM24.4976 12.5028C25.0819 13.0871 25.4101 13.8795 25.4101 14.7059H33.4101C33.4101 11.7578 32.239 8.93054 30.1545 6.84596L24.4976 12.5028ZM25.4101 14.7059C25.4101 14.0224 25.6816 13.367 26.1649 12.8837L31.8217 18.5406C32.8387 17.5235 33.4101 16.1442 33.4101 14.7059H25.4101ZM26.1649 12.8837C26.6481 12.4005 27.3036 12.129 27.987 12.129V20.129C29.4253 20.129 30.8047 19.5576 31.8217 18.5406L26.1649 12.8837ZM27.987 12.129C28.6704 12.129 29.3259 12.4005 29.8092 12.8837L24.1523 18.5406C25.1693 19.5576 26.5487 20.129 27.987 20.129V12.129ZM29.8092 12.8837C30.2924 13.367 30.5639 14.0224 30.5639 14.7059H22.5639C22.5639 16.1441 23.1352 17.5235 24.1523 18.5406L29.8092 12.8837ZM30.5639 14.7059C30.5639 12.5127 29.6927 10.4094 28.1419 8.85855L22.485 14.5154C22.5355 14.5659 22.5639 14.6344 22.5639 14.7059H30.5639ZM28.1419 8.85855C26.5911 7.30775 24.4878 6.4365 22.2946 6.4365V14.4365C22.366 14.4365 22.4345 14.4649 22.485 14.5154L28.1419 8.85855ZM22.2946 6.4365C22.978 6.4365 23.6335 6.708 24.1167 7.19127L18.4599 12.8481C19.4769 13.8651 20.8563 14.4365 22.2946 14.4365V6.4365ZM24.1167 7.19127C24.6 7.67452 24.8715 8.32996 24.8715 9.01338H16.8715C16.8715 10.4517 17.4428 11.8311 18.4599 12.8481L24.1167 7.19127ZM16.0822 -0.0945714C14.2379 -2.70629 11.4971 -4.03061 8.58993 -3.99946L8.67564 4.00008C8.87024 3.99799 8.99889 4.03689 9.09431 4.08565C9.1871 4.13307 9.35096 4.24199 9.54738 4.52013L16.0822 -0.0945714ZM8.59263 -3.99949C5.99747 -3.97344 3.74559 -2.88861 2.12327 -1.75198L6.71371 4.79996C7.55052 4.21368 8.24352 4.00442 8.67293 4.00011L8.59263 -3.99949ZM2.1158 -1.74673C0.435266 -0.563577 -0.997694 0.936771 -2.10242 2.66986L4.6436 6.97C5.18771 6.1164 5.89348 5.37744 6.72118 4.79471L2.1158 -1.74673ZM-2.11113 2.68358C-3.12858 4.29414 -4.12424 6.57972 -3.98744 9.14131L4.00118 8.71469C3.98618 8.43384 4.11382 7.80866 4.6523 6.95628L-2.11113 2.68358ZM-3.98741 9.14195C-3.55539 17.207 0.886585 25.3938 6.79193 31.3034L12.4508 25.6485C7.55193 20.7462 4.30156 14.3223 4.00114 8.71404L-3.98741 9.14195ZM6.79243 31.3039C12.6806 37.1941 21.0031 41.7695 29.8991 40.8929L29.1146 32.9315C23.4532 33.4893 17.3588 30.5583 12.4503 25.648L6.79243 31.3039ZM29.8986 40.8929C32.3875 40.648 34.4727 39.4295 35.958 38.182L30.8127 32.0561C30.093 32.6606 29.4801 32.8955 29.1152 32.9314L29.8986 40.8929ZM35.9707 38.1713C37.5253 36.8544 38.7956 35.2347 39.7039 33.4109L32.5429 29.8444C32.1188 30.6959 31.5258 31.452 30.8 32.0668L35.9707 38.1713ZM39.7134 33.3916C40.5889 31.6098 41.2625 29.2682 40.9003 26.7554L32.9821 27.8967C33.0449 28.3326 32.9481 29.0195 32.5333 29.8638L39.7134 33.3916ZM40.9008 26.759C40.5062 24.0037 38.9216 21.5621 36.278 20.0387L32.2838 26.9703C32.5822 27.1422 32.7304 27.3071 32.8097 27.424C32.8902 27.5428 32.9526 27.6907 32.9816 27.8931L40.9008 26.759ZM36.2883 20.0447C36.004 19.8797 35.7228 19.7095 35.4448 19.534L31.174 26.2986C31.5364 26.5274 31.9029 26.7493 32.2735 26.9643L36.2883 20.0447ZM35.4172 19.5167C35.1625 19.3588 34.8107 19.137 34.4059 18.895L30.3003 25.7612C30.6317 25.9593 30.8871 26.1209 31.2016 26.3159L35.4172 19.5167ZM34.4524 18.9232C33.4892 18.3293 32.4728 17.8264 31.4163 17.421L28.55 24.8899C29.1428 25.1174 29.7132 25.3996 30.2538 25.7329L34.4524 18.9232ZM31.3535 17.3975C30.1414 16.9555 28.4855 16.5617 26.6121 16.8188L27.6997 24.7445C27.8452 24.7245 28.1285 24.7368 28.6128 24.9134L31.3535 17.3975ZM26.6094 16.8191C24.6074 17.0953 22.8229 18.0499 21.3992 19.5474L27.1974 25.0594C27.3407 24.9087 27.4492 24.8384 27.5131 24.8047C27.575 24.7722 27.6331 24.7537 27.7025 24.7441L26.6094 16.8191ZM21.3943 19.5527C21.5023 19.4386 21.6501 19.3172 21.8367 19.2152C22.0238 19.113 22.206 19.0544 22.3597 19.0259C22.6531 18.9716 22.731 19.0447 22.4695 18.9691L20.2487 26.6547C22.4982 27.3047 25.1971 27.1711 27.2024 25.0541L21.3943 19.5527ZM22.4722 18.9699C21.9305 18.813 20.958 18.2776 19.9519 17.2772L14.3112 22.9502C15.9692 24.5987 18.0629 26.0215 20.2461 26.654L22.4722 18.9699ZM19.9478 17.2732C18.9477 16.2816 18.3709 15.2816 18.1831 14.6735L10.5394 17.0342C11.213 19.2154 12.6513 21.3045 14.3153 22.9542L19.9478 17.2732ZM18.1844 14.6775C18.0957 14.3893 18.1569 14.4104 18.1223 14.6415C18.1041 14.7632 18.0623 14.919 17.9807 15.0874C17.8988 15.2562 17.7958 15.3987 17.6904 15.5098L11.886 10.0044C9.90525 12.0927 9.84739 14.7852 10.5381 17.0302L18.1844 14.6775ZM17.6885 15.5118C19.1496 13.9735 20.0593 12.0976 20.2482 10.0093L12.2807 9.28874C12.2684 9.42431 12.2218 9.65089 11.8879 10.0025L17.6885 15.5118ZM20.2479 10.0124C20.4276 8.04206 19.925 6.33155 19.3781 5.07066L12.0388 8.25413C12.2623 8.76929 12.2985 9.09289 12.281 9.28564L20.2479 10.0124ZM19.3766 5.06712C18.5832 3.2428 17.3063 1.55519 16.593 0.598346L10.1789 5.37936C10.9988 6.4794 11.6801 7.4293 12.0403 8.25767L19.3766 5.06712ZM16.5866 0.589713C16.4123 0.357226 16.2407 0.122736 16.0719 -0.113712L9.56152 4.53548C9.76616 4.82204 9.9741 5.10624 10.1853 5.388L16.5866 0.589713Z" fill="black" mask="url(#path-1-inside-1_7281_805)"/>
</svg>
